<?xml version="1.0" encoding="UTF-8"?>
<svg width="76px" height="80px" viewBox="0 0 76 80" version="1.1" xmlns="http://www.w3.org/2000/svg" xmlns:xlink="http://www.w3.org/1999/xlink">
    <!-- Generator: Sketch 52.5 (67469) - http://www.bohemiancoding.com/sketch -->
    <title>Group 2@2x</title>
    <desc>Created with Sketch.</desc>
    <g id="Page-1" stroke="none" stroke-width="1" fill="none" fill-rule="evenodd">
        <g id="Artboard" transform="translate(-116.000000, -237.000000)" fill="#000565">
            <g id="Group-2" transform="translate(116.000000, 237.000000)">
                <rect id="Rectangle-Copy-100" x="60" y="40" width="4" height="4"></rect>
                <rect id="Rectangle-Copy-99" x="54" y="40" width="4" height="4"></rect>
                <rect id="Rectangle-Copy-98" x="48" y="40" width="4" height="4"></rect>
                <rect id="Rectangle-Copy-97" x="42" y="40" width="4" height="4"></rect>
                <rect id="Rectangle-Copy-96" x="36" y="40" width="4" height="4"></rect>
                <rect id="Rectangle-Copy-85" x="60" y="34" width="4" height="4"></rect>
                <rect id="Rectangle-Copy-84" x="54" y="34" width="4" height="4"></rect>
                <rect id="Rectangle-Copy-83" x="48" y="34" width="4" height="4"></rect>
                <rect id="Rectangle-Copy-82" x="42" y="34" width="4" height="4"></rect>
                <rect id="Rectangle-Copy-81" x="36" y="34" width="4" height="4"></rect>
                <rect id="Rectangle-Copy-69" x="54" y="28" width="4" height="4"></rect>
                <rect id="Rectangle-Copy-68" x="48" y="28" width="4" height="4"></rect>
                <rect id="Rectangle-Copy-67" x="42" y="28" width="4" height="4"></rect>
                <rect id="Rectangle-Copy-64" x="18" y="24" width="4" height="4"></rect>
                <rect id="Rectangle-Copy-54" x="48" y="18" width="4" height="4"></rect>
                <rect id="Rectangle-Copy-53" x="42" y="18" width="4" height="4"></rect>
                <rect id="Rectangle-Copy-52" x="36" y="18" width="4" height="4"></rect>
                <rect id="Rectangle-Copy-51" x="30" y="18" width="4" height="4"></rect>
                <rect id="Rectangle-Copy-50" x="24" y="18" width="4" height="4"></rect>
                <rect id="Rectangle-Copy-49" x="18" y="18" width="4" height="4"></rect>
                <rect id="Rectangle-Copy-48" x="12" y="18" width="4" height="4"></rect>
                <rect id="Rectangle-Copy-47" x="6" y="18" width="4" height="4"></rect>
                <rect id="Rectangle-Copy-38" x="42" y="12" width="4" height="4"></rect>
                <rect id="Rectangle-Copy-37" x="36" y="12" width="4" height="4"></rect>
                <rect id="Rectangle-Copy-36" x="30" y="12" width="4" height="4"></rect>
                <rect id="Rectangle-Copy-35" x="24" y="12" width="4" height="4"></rect>
                <rect id="Rectangle-Copy-34" x="18" y="12" width="4" height="4"></rect>
                <rect id="Rectangle-Copy-33" x="12" y="12" width="4" height="4"></rect>
                <rect id="Rectangle-Copy-32" x="6" y="12" width="4" height="4"></rect>
                <rect id="Rectangle-Copy-31" x="0" y="12" width="4" height="4"></rect>
                <rect id="Rectangle-Copy-22" x="36" y="6" width="4" height="4"></rect>
                <rect id="Rectangle-Copy-21" x="30" y="6" width="4" height="4"></rect>
                <rect id="Rectangle-Copy-19" x="12" y="0" width="4" height="4"></rect>
                <rect id="Rectangle-Copy-18" x="12" y="6" width="4" height="4"></rect>
                <rect id="Rectangle-Copy-17" x="6" y="6" width="4" height="4"></rect>
                <rect id="Rectangle-Copy-4" x="18" y="0" width="4" height="4"></rect>
                <rect id="Rectangle-Copy-190" x="60" y="76" width="4" height="4"></rect>
                <rect id="Rectangle-Copy-189" x="54" y="76" width="4" height="4"></rect>
                <rect id="Rectangle-Copy-188" x="48" y="76" width="4" height="4"></rect>
                <rect id="Rectangle-Copy-187" x="42" y="76" width="4" height="4"></rect>
                <rect id="Rectangle-Copy-186" x="36" y="76" width="4" height="4"></rect>
                <rect id="Rectangle-Copy-176" x="66" y="70" width="4" height="4"></rect>
                <rect id="Rectangle-Copy-175" x="60" y="70" width="4" height="4"></rect>
                <rect id="Rectangle-Copy-174" x="54" y="70" width="4" height="4"></rect>
                <rect id="Rectangle-Copy-173" x="48" y="70" width="4" height="4"></rect>
                <rect id="Rectangle-Copy-172" x="42" y="70" width="4" height="4"></rect>
                <rect id="Rectangle-Copy-171" x="36" y="70" width="4" height="4"></rect>
                <rect id="Rectangle-Copy-162" x="72" y="64" width="4" height="4"></rect>
                <rect id="Rectangle-Copy-161" x="66" y="64" width="4" height="4"></rect>
                <rect id="Rectangle-Copy-160" x="60" y="64" width="4" height="4"></rect>
                <rect id="Rectangle-Copy-159" x="54" y="64" width="4" height="4"></rect>
                <rect id="Rectangle-Copy-158" x="48" y="64" width="4" height="4"></rect>
                <rect id="Rectangle-Copy-157" x="42" y="64" width="4" height="4"></rect>
                <rect id="Rectangle-Copy-156" x="36" y="64" width="4" height="4"></rect>
                <rect id="Rectangle-Copy-147" x="72" y="58" width="4" height="4"></rect>
                <rect id="Rectangle-Copy-146" x="66" y="58" width="4" height="4"></rect>
                <rect id="Rectangle-Copy-145" x="60" y="58" width="4" height="4"></rect>
                <rect id="Rectangle-Copy-144" x="54" y="58" width="4" height="4"></rect>
                <rect id="Rectangle-Copy-143" x="48" y="58" width="4" height="4"></rect>
                <rect id="Rectangle-Copy-142" x="42" y="58" width="4" height="4"></rect>
                <rect id="Rectangle-Copy-141" x="36" y="58" width="4" height="4"></rect>
                <rect id="Rectangle-Copy-140" x="30" y="58" width="4" height="4"></rect>
                <rect id="Rectangle-Copy-131" x="66" y="52" width="4" height="4"></rect>
                <rect id="Rectangle-Copy-129" x="54" y="52" width="4" height="4"></rect>
                <rect id="Rectangle-Copy-128" x="48" y="52" width="4" height="4"></rect>
                <rect id="Rectangle-Copy-127" x="42" y="52" width="4" height="4"></rect>
                <rect id="Rectangle-Copy-126" x="36" y="52" width="4" height="4"></rect>
                <rect id="Rectangle-Copy-125" x="30" y="52" width="4" height="4"></rect>
                <rect id="Rectangle-Copy-114" x="54" y="46" width="4" height="4"></rect>
                <rect id="Rectangle-Copy-113" x="48" y="46" width="4" height="4"></rect>
                <rect id="Rectangle-Copy-112" x="42" y="46" width="4" height="4"></rect>
                <rect id="Rectangle-Copy-111" x="36" y="46" width="4" height="4"></rect>
                <rect id="Rectangle-Copy-110" x="30" y="46" width="4" height="4"></rect>
            </g>
        </g>
    </g>
</svg>